<svg width="24" height="24" viewBox="0 0 24 24" fill="none" xmlns="http://www.w3.org/2000/svg">
<path d="M9.92943 13.5664C8.89333 13.2531 7.99265 12.7138 7.30414 12.0263H16.6956C16.0071 12.7138 15.1064 13.2531 14.0703 13.5664L13.715 13.6738V14.045V14.6702C12.5812 14.8477 11.4185 14.8477 10.2847 14.6702V14.045V13.6738L9.92943 13.5664ZM6.5 8.29252V6.37082C7.49694 4.69056 9.56617 3.5 11.9999 3.5C14.4338 3.5 16.5031 4.69075 17.5 6.3712V8.29252H6.5ZM10.2847 19.1053V18.5353C11.4217 18.6821 12.578 18.6821 13.715 18.5353V19.1053C13.715 19.8051 13.0233 20.5 11.9999 20.5C10.9765 20.5 10.2847 19.8051 10.2847 19.1053Z" stroke="white"/>
</svg>
